# xmcd CD database file
#
# Track frame offsets:
#	150
#	35777
#	76422
#	112900
#	150837
#	180900
#	216525
#
# Disc length: 3285 seconds
#
# Revision: 0
# Processed by: cddbd v1.5.1PL0 Copyright (c) Steve Scherf et al.
# Submitted via: CDex 1.51
#
DISCID=4f0cd307
DTITLE=Art Johnson Quartet - textures
DYEAR=1900
DGENRE=Jazz
TTITLE0=Bye-Bye Blackbird
TTITLE1=Manya de Carnival
TTITLE2=Darn that Dream
TTITLE3=Alice in Wonderland
TTITLE4=My Romance
TTITLE5=Like Someone in Love
TTITLE6=Just Friends
EXTD=
EXTT0=
EXTT1=
EXTT2=
EXTT3=
EXTT4=
EXTT5=
EXTT6=
PLAYORDER=
